<svg width="104" height="40" viewBox="0 0 104 40" fill="none" xmlns="http://www.w3.org/2000/svg">
<path d="M0.528409 31V1.90909H6.67898V25.929H19.1506V31H0.528409ZM32.968 31.4261C30.7616 31.4261 28.8535 30.9574 27.2436 30.0199C25.6432 29.0729 24.4074 27.7566 23.5362 26.071C22.665 24.3759 22.2294 22.411 22.2294 20.1761C22.2294 17.9223 22.665 15.9527 23.5362 14.267C24.4074 12.572 25.6432 11.2557 27.2436 10.3182C28.8535 9.37121 30.7616 8.89773 32.968 8.89773C35.1745 8.89773 37.0779 9.37121 38.6783 10.3182C40.2881 11.2557 41.5286 12.572 42.3999 14.267C43.2711 15.9527 43.7067 17.9223 43.7067 20.1761C43.7067 22.411 43.2711 24.3759 42.3999 26.071C41.5286 27.7566 40.2881 29.0729 38.6783 30.0199C37.0779 30.9574 35.1745 31.4261 32.968 31.4261ZM32.9964 26.7386C34.0002 26.7386 34.8383 26.4545 35.5107 25.8864C36.183 25.3087 36.6896 24.5227 37.0305 23.5284C37.3809 22.5341 37.5561 21.4025 37.5561 20.1335C37.5561 18.8646 37.3809 17.733 37.0305 16.7386C36.6896 15.7443 36.183 14.9583 35.5107 14.3807C34.8383 13.803 34.0002 13.5142 32.9964 13.5142C31.9832 13.5142 31.1309 13.803 30.4396 14.3807C29.7578 14.9583 29.2417 15.7443 28.8913 16.7386C28.5504 17.733 28.38 18.8646 28.38 20.1335C28.38 21.4025 28.5504 22.5341 28.8913 23.5284C29.2417 24.5227 29.7578 25.3087 30.4396 25.8864C31.1309 26.4545 31.9832 26.7386 32.9964 26.7386ZM57.4709 39.6364C55.5107 39.6364 53.8298 39.3665 52.4283 38.8267C51.0362 38.2964 49.9283 37.572 49.1044 36.6534C48.2805 35.7348 47.7455 34.7027 47.4993 33.5568L53.0959 32.804C53.2663 33.2396 53.5362 33.6468 53.9055 34.0256C54.2749 34.4044 54.7625 34.7074 55.3686 34.9347C55.9841 35.1714 56.7322 35.2898 57.6129 35.2898C58.9292 35.2898 60.0135 34.9678 60.8658 34.3239C61.7275 33.6894 62.1584 32.6241 62.1584 31.1278V27.1364H61.9027C61.6375 27.7424 61.2398 28.3153 60.7095 28.8551C60.1792 29.3949 59.4974 29.8352 58.6641 30.1761C57.8307 30.517 56.8364 30.6875 55.6811 30.6875C54.0429 30.6875 52.5514 30.3087 51.2067 29.5511C49.8714 28.7841 48.8061 27.6146 48.0107 26.0426C47.2247 24.4612 46.8317 22.4631 46.8317 20.0483C46.8317 17.5767 47.2341 15.5123 48.0391 13.8551C48.844 12.1979 49.9141 10.9574 51.2493 10.1335C52.594 9.30966 54.0665 8.89773 55.6669 8.89773C56.8885 8.89773 57.9112 9.10606 58.7351 9.52273C59.5589 9.92992 60.2218 10.4413 60.7237 11.0568C61.2351 11.6629 61.6281 12.2595 61.9027 12.8466H62.13V9.18182H68.1385V31.2131C68.1385 33.0691 67.6839 34.6222 66.7749 35.8722C65.8658 37.1222 64.6063 38.0597 62.9964 38.6847C61.3961 39.3191 59.5542 39.6364 57.4709 39.6364ZM57.5987 26.142C58.5741 26.142 59.398 25.9006 60.0703 25.4176C60.7521 24.9252 61.273 24.2244 61.6328 23.3153C62.0021 22.3968 62.1868 21.2983 62.1868 20.0199C62.1868 18.7415 62.0069 17.6335 61.647 16.696C61.2872 15.7491 60.7663 15.0152 60.0845 14.4943C59.4027 13.9735 58.5741 13.7131 57.5987 13.7131C56.6044 13.7131 55.7663 13.983 55.0845 14.5227C54.4027 15.053 53.8866 15.7917 53.5362 16.7386C53.1858 17.6856 53.0107 18.7794 53.0107 20.0199C53.0107 21.2794 53.1858 22.3684 53.5362 23.2869C53.8961 24.196 54.4122 24.9015 55.0845 25.4034C55.7663 25.8958 56.6044 26.142 57.5987 26.142ZM72.9538 31V9.18182H79.005V31H72.9538ZM75.9936 6.36932C75.094 6.36932 74.3222 6.07102 73.6783 5.47443C73.0438 4.86837 72.7266 4.14394 72.7266 3.30114C72.7266 2.4678 73.0438 1.75284 73.6783 1.15625C74.3222 0.550188 75.094 0.247158 75.9936 0.247158C76.8932 0.247158 77.6603 0.550188 78.2947 1.15625C78.9387 1.75284 79.2607 2.4678 79.2607 3.30114C79.2607 4.14394 78.9387 4.86837 78.2947 5.47443C77.6603 6.07102 76.8932 6.36932 75.9936 6.36932ZM89.9034 18.3864V31H83.8523V9.18182H89.6193V13.0312H89.875C90.358 11.7623 91.1676 10.7585 92.304 10.0199C93.4403 9.27178 94.8182 8.89773 96.4375 8.89773C97.9527 8.89773 99.2737 9.22917 100.401 9.89205C101.527 10.5549 102.403 11.5019 103.028 12.733C103.653 13.9545 103.966 15.4129 103.966 17.108V31H97.9148V18.1875C97.9242 16.8523 97.5833 15.8106 96.892 15.0625C96.2008 14.3049 95.2491 13.9261 94.0369 13.9261C93.2225 13.9261 92.5028 14.1013 91.8778 14.4517C91.2623 14.8021 90.7794 15.3134 90.429 15.9858C90.0881 16.6487 89.9129 17.4489 89.9034 18.3864Z" fill="white"/>
</svg>
